<?xml version="1.0" encoding="utf-8"?>
<!-- Generator: Adobe Illustrator 26.0.1, SVG Export Plug-In . SVG Version: 6.00 Build 0)  -->
<svg version="1.1" id="Lager_1" xmlns="http://www.w3.org/2000/svg" xmlns:xlink="http://www.w3.org/1999/xlink" x="0px" y="0px"
	 viewBox="0 0 128 128" style="enable-background:new 0 0 128 128;" xml:space="preserve">
<style type="text/css">
	.st0{fill:none;stroke:#FFFFFF;stroke-width:10;stroke-miterlimit:10;}
</style>
<path class="st0" d="M119.07,49.25h-12.92c-2.41,0-3.62-2.92-1.92-4.63l9.13-9.13c1.53-1.53,1.53-4.02,0-5.56l-15.3-15.3
	c-1.53-1.53-4.02-1.53-5.56,0l-9.13,9.13c-1.71,1.71-4.63,0.5-4.63-1.92V8.93c0-2.17-1.76-3.93-3.93-3.93H53.18
	c-2.17,0-3.93,1.76-3.93,3.93v12.92c0,2.41-2.92,3.62-4.63,1.92l-9.13-9.13c-1.53-1.53-4.02-1.53-5.56,0l-15.3,15.3
	c-1.53,1.53-1.53,4.02,0,5.56l9.13,9.13c1.71,1.71,0.5,4.63-1.92,4.63H8.93C6.76,49.25,5,51.01,5,53.18v21.64
	c0,2.17,1.76,3.93,3.93,3.93h12.92c2.41,0,3.62,2.92,1.92,4.63l-9.13,9.13c-1.53,1.53-1.53,4.02,0,5.56l15.3,15.3
	c1.53,1.53,4.02,1.53,5.56,0l9.13-9.13c1.71-1.71,4.63-0.5,4.63,1.92v12.92c0,2.17,1.76,3.93,3.93,3.93h21.64
	c2.17,0,3.93-1.76,3.93-3.93v-12.92c0-2.41,2.92-3.62,4.63-1.92l9.13,9.13c1.53,1.53,4.02,1.53,5.56,0l15.3-15.3
	c1.53-1.53,1.53-4.02,0-5.56l-9.13-9.13c-1.71-1.71-0.5-4.63,1.92-4.63h12.92c2.17,0,3.93-1.76,3.93-3.93V53.18
	C123,51.01,121.24,49.25,119.07,49.25z M64,86.5c-12.43,0-22.5-10.07-22.5-22.5S51.57,41.5,64,41.5S86.5,51.57,86.5,64
	S76.43,86.5,64,86.5z"/>
</svg>
