<?xml version="1.0" encoding="utf-8"?>
<!-- Generator: Adobe Illustrator 26.0.1, SVG Export Plug-In . SVG Version: 6.00 Build 0)  -->
<svg version="1.1" id="Lager_1" xmlns="http://www.w3.org/2000/svg" xmlns:xlink="http://www.w3.org/1999/xlink" x="0px" y="0px"
	 viewBox="0 0 512 512" style="enable-background:new 0 0 512 512;" xml:space="preserve">
<style type="text/css">
	.st0{fill:#14B8A6;stroke:#115E59;stroke-width:5;stroke-linejoin:round;stroke-miterlimit:10;}
	.st1{fill:#115E59;}
	.st2{fill:none;stroke:#115E59;stroke-width:5;stroke-linejoin:round;stroke-miterlimit:10;}
	.st3{fill:#99F6E4;stroke:#0D9488;stroke-width:5;stroke-linejoin:round;stroke-miterlimit:10;}
</style>
<g>
	<rect x="50.55" y="339.51" class="st0" width="191.76" height="107.87"/>
	<g>
		<path class="st1" d="M113.99,393.11l17.34,5.83v9.73l-28.02-11.41v-8.43l28.02-11.41v9.7L113.99,393.11z"/>
		<path class="st1" d="M141.6,416.38h-7.58l15.76-50.12h7.61L141.6,416.38z"/>
		<path class="st1" d="M178.5,393.02l-17.24-5.86v-9.7l27.86,11.41v8.43l-27.86,11.41v-9.7L178.5,393.02z"/>
	</g>
</g>
<g>
	<g>
		<rect x="357.37" y="182.27" class="st0" width="84.91" height="103.77"/>
		<line class="st2" x1="357.37" y1="206.73" x2="442.28" y2="207.28"/>
		<line class="st2" x1="357.37" y1="233.88" x2="442.28" y2="234.43"/>
		<line class="st2" x1="357.02" y1="261.03" x2="441.93" y2="261.58"/>
		<line class="st2" x1="385.67" y1="182.27" x2="385.67" y2="286.05"/>
		<line class="st2" x1="413.98" y1="182.27" x2="413.98" y2="286.05"/>
	</g>
	<path class="st3" d="M441.56,277.57c-6.78-11.99-19.64-20.1-34.4-20.1c-14.14,0-26.54,7.44-33.51,18.6
		c-4.62-2.42-9.87-3.8-15.44-3.8c-18.4,0-33.32,14.92-33.32,33.32c0,18.4,14.92,33.32,33.32,33.32c5.38,0,10.46-1.28,14.96-3.55
		c4.86,6.33,12.5,10.41,21.1,10.41c8.46,0,15.99-3.95,20.87-10.11c6.19,6.24,14.76,10.11,24.25,10.11
		c18.86,0,34.14-15.29,34.14-34.14C473.53,293.51,459.41,278.69,441.56,277.57z"/>
</g>
<g>
	<path class="st1" d="M135.31,117.35c2.3,0,4.22,0.68,5.75,2.05c1.53,1.37,2.29,3.12,2.29,5.25c0,2.13-0.76,3.88-2.29,5.25
		c-1.53,1.37-3.44,2.05-5.75,2.05c-2.33,0-4.26-0.69-5.77-2.07c-1.51-1.38-2.27-3.13-2.27-5.23c0-2.1,0.76-3.85,2.27-5.23
		C131.05,118.05,132.97,117.35,135.31,117.35z"/>
	<path class="st1" d="M172.82,121.11c2.05,0,3.63-0.55,4.75-1.66c1.12-1.11,1.67-2.66,1.64-4.65h13.66c0,5.13-1.84,9.34-5.51,12.62
		c-3.67,3.28-8.41,4.93-14.2,4.93c-6.8,0-12.16-2.13-16.08-6.4c-3.92-4.26-5.88-10.17-5.88-17.72v-0.61c0-4.72,0.87-8.9,2.61-12.51
		c1.74-3.62,4.26-6.4,7.54-8.34c3.28-1.95,7.17-2.92,11.67-2.92c6.08,0,10.9,1.69,14.48,5.06c3.57,3.37,5.36,7.94,5.36,13.7h-13.66
		c0-2.42-0.59-4.28-1.77-5.58c-1.18-1.3-2.77-1.94-4.75-1.94c-3.77,0-5.98,2.41-6.61,7.22c-0.2,1.53-0.3,3.63-0.3,6.31
		c0,4.7,0.56,7.95,1.69,9.77C168.59,120.21,170.37,121.11,172.82,121.11z"/>
	<path class="st1" d="M197.2,107.67c0-4.67,0.91-8.82,2.72-12.47c1.82-3.64,4.42-6.45,7.82-8.41c3.4-1.96,7.39-2.94,11.97-2.94
		c7,0,12.52,2.17,16.55,6.5c4.03,4.34,6.05,10.24,6.05,17.7v0.52c0,7.29-2.02,13.07-6.07,17.35c-4.05,4.28-9.53,6.42-16.44,6.42
		c-6.66,0-12-1.99-16.03-5.99c-4.03-3.99-6.21-9.4-6.53-16.23L197.2,107.67z M211.76,108.58c0,4.32,0.68,7.49,2.03,9.51
		c1.35,2.02,3.36,3.03,6.01,3.03c5.19,0,7.84-3.99,7.95-11.97v-1.47c0-8.38-2.68-12.58-8.04-12.58c-4.87,0-7.51,3.62-7.91,10.85
		L211.76,108.58z"/>
	<path class="st1" d="M262.5,84.72l0.48,5.49c3.31-4.24,7.76-6.35,13.35-6.35c5.91,0,9.9,2.35,11.97,7.04
		c3.17-4.7,7.75-7.04,13.74-7.04c9.48,0,14.35,5.73,14.61,17.2v30.43h-14.61v-29.52c0-2.39-0.4-4.13-1.21-5.23
		c-0.81-1.09-2.28-1.64-4.41-1.64c-2.88,0-5.03,1.28-6.44,3.85l0.04,0.61v31.94h-14.61v-29.43c0-2.45-0.39-4.22-1.17-5.32
		c-0.78-1.09-2.26-1.64-4.45-1.64c-2.8,0-4.93,1.28-6.4,3.85v32.54h-14.56V84.72H262.5z"/>
</g>
</svg>
