<?xml version="1.0" encoding="utf-8"?>
<!-- Generator: Adobe Illustrator 26.0.1, SVG Export Plug-In . SVG Version: 6.00 Build 0)  -->
<svg version="1.1" id="Lager_1" xmlns="http://www.w3.org/2000/svg" xmlns:xlink="http://www.w3.org/1999/xlink" x="0px" y="0px"
	 viewBox="0 0 512 512" style="enable-background:new 0 0 512 512;" xml:space="preserve">
<style type="text/css">
	.st0{fill:#2DD4BF;}
	.st1{fill:#14B8A6;}
	.st2{fill:#0D9488;}
	.st3{fill:#0F766E;}
	.st4{fill:#115E59;}
</style>
<path class="st0" d="M512,39.56c-22.99,8.79-57.82,18.53-98.1,14.38c-51.99-5.35-62.19-28.59-101.57-33.08
	c-69.21-7.88-158.94,50.12-182.31,115.77c-17.52,49.23,13.96,69.9-11.29,126.56c-18.84,42.28-43.53,46.82-55.56,76.94
	C50.55,371.73,30.57,424.11,119.69,512H512V39.56z"/>
<path class="st1" d="M512,79.51c-20.97,8.01-52.72,16.89-89.46,13.11c-47.41-4.88-56.71-26.08-92.62-30.16
	c-63.12-7.19-144.94,45.7-166.25,105.58c-15.98,44.89,12.73,63.75-10.29,115.41c-17.18,38.55-39.69,42.7-50.67,70.16
	C91.2,382.42,72.48,431.85,153.75,512H512V79.51z"/>
<path class="st2" d="M512,119.46c-18.94,7.24-47.63,15.26-80.82,11.85c-42.83-4.41-51.23-23.56-83.68-27.25
	c-57.02-6.49-130.94,41.29-150.19,95.38c-14.43,40.55,11.5,57.59-9.3,104.26c-15.52,34.83-35.86,38.57-45.77,63.39
	c-10.4,26.03-27.85,72.51,45.57,144.91H512V119.46z"/>
<path class="st3" d="M512,159.42c-16.91,6.46-42.54,13.63-72.17,10.58c-38.25-3.94-45.76-21.04-74.73-24.34
	c-50.92-5.8-116.94,36.87-134.13,85.18c-12.89,36.22,10.27,51.43-8.3,93.11c-13.86,31.11-32.02,34.45-40.88,56.61
	C172.5,403.81,157,447.34,222.57,512H512V159.42z"/>
<path class="st4" d="M512,199.37c-14.89,5.69-37.44,12-63.53,9.31c-33.67-3.46-40.28-18.52-65.78-21.42
	c-44.82-5.1-102.94,32.46-118.07,74.98c-11.35,31.88,9.04,45.27-7.31,81.96c-12.2,27.38-28.19,30.32-35.98,49.83
	C213.15,414.5,198.28,455.08,256,512h256V199.37z"/>
</svg>
