<?xml version="1.0" encoding="utf-8"?>
<!-- Generator: Adobe Illustrator 26.0.1, SVG Export Plug-In . SVG Version: 6.00 Build 0)  -->
<svg version="1.1" id="Lager_1" xmlns="http://www.w3.org/2000/svg" xmlns:xlink="http://www.w3.org/1999/xlink" x="0px" y="0px"
	 viewBox="0 0 128 128" style="enable-background:new 0 0 128 128;" xml:space="preserve">
<style type="text/css">
	.st0{fill:none;stroke:#FFFFFF;stroke-width:10;stroke-miterlimit:10;}
	.st1{fill:#FFFFFF;}
</style>
<circle class="st0" cx="64" cy="64" r="59"/>
<g>
	<path class="st1" d="M75.08,79.38c0-2.46-0.87-4.34-2.6-5.66c-1.73-1.31-4.85-2.7-9.36-4.16c-4.51-1.46-8.08-2.9-10.71-4.31
		c-7.17-3.87-10.75-9.09-10.75-15.65c0-3.41,0.96-6.45,2.88-9.12c1.92-2.67,4.68-4.76,8.28-6.26c3.6-1.5,7.64-2.25,12.12-2.25
		c4.51,0,8.52,0.82,12.05,2.45c3.53,1.63,6.26,3.94,8.21,6.91c1.95,2.98,2.93,6.36,2.93,10.14h-13c0-2.89-0.91-5.14-2.73-6.74
		c-1.82-1.6-4.38-2.41-7.67-2.41c-3.18,0-5.65,0.67-7.41,2.02c-1.76,1.34-2.64,3.11-2.64,5.31c0,2.05,1.03,3.77,3.1,5.16
		c2.07,1.39,5.11,2.69,9.12,3.9c7.4,2.23,12.79,4.98,16.17,8.28c3.38,3.29,5.07,7.4,5.07,12.31c0,5.46-2.07,9.75-6.2,12.85
		c-4.13,3.11-9.7,4.66-16.69,4.66c-4.85,0-9.28-0.89-13.26-2.67c-3.99-1.78-7.03-4.21-9.12-7.3s-3.14-6.68-3.14-10.75h13.05
		c0,6.96,4.16,10.45,12.48,10.45c3.09,0,5.51-0.63,7.24-1.88C74.21,83.39,75.08,81.64,75.08,79.38z"/>
</g>
<line class="st0" x1="64" y1="24" x2="64" y2="104"/>
</svg>
